<svg width="1420" height="832" viewBox="0 0 1420 832" fill="none" xmlns="http://www.w3.org/2000/svg">
<g clip-path="url(#clip0_2003_75)">
<rect width="1420" height="832" fill="#0A0A0A"/>
<line x1="97.0002" y1="58" x2="97.0002" y2="70" stroke="white" stroke-opacity="0.8" stroke-width="1.33333"/>
<line x1="103" y1="64" x2="91" y2="64" stroke="white" stroke-opacity="0.8" stroke-width="1.33333"/>
<mask id="path-3-inside-1_2003_75" fill="white">
<path d="M0 0H1420V64H0V0Z"/>
</mask>
<path d="M1420 63H0V65H1420V63Z" fill="#222222" mask="url(#path-3-inside-1_2003_75)"/>
<mask id="path-5-inside-2_2003_75" fill="white">
<path d="M96 0H1324V64H96V0Z"/>
</mask>
<path d="M1323 0V64H1325V0H1323ZM97 64V0H95V64H97Z" fill="#222222" mask="url(#path-5-inside-2_2003_75)"/>
<mask id="path-7-inside-3_2003_75" fill="white">
<path d="M0 64H1420V704H0V64Z"/>
</mask>
<path d="M1420 703H0V705H1420V703Z" fill="#222222" mask="url(#path-7-inside-3_2003_75)"/>
<mask id="path-9-inside-4_2003_75" fill="white">
<path d="M96 64H1324V704H96V64Z"/>
</mask>
<path d="M1323 64V704H1325V64H1323ZM97 704V64H95V704H97Z" fill="#222222" mask="url(#path-9-inside-4_2003_75)"/>
<mask id="path-11-inside-5_2003_75" fill="white">
<path d="M0 704H1420V832H0V704Z"/>
</mask>
<path d="M1420 831H0V833H1420V831Z" fill="#222222" mask="url(#path-11-inside-5_2003_75)"/>
<mask id="path-13-inside-6_2003_75" fill="white">
<path d="M96 704H1324V832H96V704Z"/>
</mask>
<path d="M1323 704V832H1325V704H1323ZM97 832V704H95V832H97Z" fill="#222222" mask="url(#path-13-inside-6_2003_75)"/>
<mask id="path-15-inside-7_2003_75" fill="white">
<path d="M96 704H505.333V832H96V704Z"/>
</mask>
<path d="M505.833 832V830H504.833V832H505.833ZM505.833 826V822H504.833V826H505.833ZM505.833 818V814H504.833V818H505.833ZM505.833 810V806H504.833V810H505.833ZM505.833 802V798H504.833V802H505.833ZM505.833 794V790H504.833V794H505.833ZM505.833 786V782H504.833V786H505.833ZM505.833 778V774H504.833V778H505.833ZM505.833 770V766H504.833V770H505.833ZM505.833 762V758H504.833V762H505.833ZM505.833 754V750H504.833V754H505.833ZM505.833 746V742H504.833V746H505.833ZM505.833 738V734H504.833V738H505.833ZM505.833 730V726H504.833V730H505.833ZM505.833 722V718H504.833V722H505.833ZM505.833 714V710H504.833V714H505.833ZM505.833 706V704H504.833V706H505.833ZM506.333 832V830H504.333V832H506.333ZM506.333 826V822H504.333V826H506.333ZM506.333 818V814H504.333V818H506.333ZM506.333 810V806H504.333V810H506.333ZM506.333 802V798H504.333V802H506.333ZM506.333 794V790H504.333V794H506.333ZM506.333 786V782H504.333V786H506.333ZM506.333 778V774H504.333V778H506.333ZM506.333 770V766H504.333V770H506.333ZM506.333 762V758H504.333V762H506.333ZM506.333 754V750H504.333V754H506.333ZM506.333 746V742H504.333V746H506.333ZM506.333 738V734H504.333V738H506.333ZM506.333 730V726H504.333V730H506.333ZM506.333 722V718H504.333V722H506.333ZM506.333 714V710H504.333V714H506.333ZM506.333 706V704H504.333V706H506.333Z" fill="#222222" mask="url(#path-15-inside-7_2003_75)"/>
<mask id="path-17-inside-8_2003_75" fill="white">
<path d="M505.333 704H914.666V832H505.333V704Z"/>
</mask>
<path d="M915.166 832V830H914.166V832H915.166ZM915.166 826V822H914.166V826H915.166ZM915.166 818V814H914.166V818H915.166ZM915.166 810V806H914.166V810H915.166ZM915.166 802V798H914.166V802H915.166ZM915.166 794V790H914.166V794H915.166ZM915.166 786V782H914.166V786H915.166ZM915.166 778V774H914.166V778H915.166ZM915.166 770V766H914.166V770H915.166ZM915.166 762V758H914.166V762H915.166ZM915.166 754V750H914.166V754H915.166ZM915.166 746V742H914.166V746H915.166ZM915.166 738V734H914.166V738H915.166ZM915.166 730V726H914.166V730H915.166ZM915.166 722V718H914.166V722H915.166ZM915.166 714V710H914.166V714H915.166ZM915.166 706V704H914.166V706H915.166ZM915.666 832V830H913.666V832H915.666ZM915.666 826V822H913.666V826H915.666ZM915.666 818V814H913.666V818H915.666ZM915.666 810V806H913.666V810H915.666ZM915.666 802V798H913.666V802H915.666ZM915.666 794V790H913.666V794H915.666ZM915.666 786V782H913.666V786H915.666ZM915.666 778V774H913.666V778H915.666ZM915.666 770V766H913.666V770H915.666ZM915.666 762V758H913.666V762H915.666ZM915.666 754V750H913.666V754H915.666ZM915.666 746V742H913.666V746H915.666ZM915.666 738V734H913.666V738H915.666ZM915.666 730V726H913.666V730H915.666ZM915.666 722V718H913.666V722H915.666ZM915.666 714V710H913.666V714H915.666ZM915.666 706V704H913.666V706H915.666Z" fill="#222222" mask="url(#path-17-inside-8_2003_75)"/>
<line x1="1324" y1="698" x2="1324" y2="710" stroke="white" stroke-opacity="0.8" stroke-width="1.33333"/>
<line x1="1330" y1="704" x2="1318" y2="704" stroke="white" stroke-opacity="0.8" stroke-width="1.33333"/>
</g>
<defs>
<clipPath id="clip0_2003_75">
<rect width="1420" height="832" fill="white"/>
</clipPath>
</defs>
</svg>
