<svg width="888" height="173" viewBox="0 0 888 173" fill="none" xmlns="http://www.w3.org/2000/svg">
<g clip-path="url(#clip0_4013_750)">
<path d="M25.4 138.187C25.5368 138.313 25.6907 138.44 25.8274 138.566L31.2282 131.483C35.7061 123.359 37.4495 115.944 37.5007 109.634C37.4323 106.258 36.9195 102.914 35.9967 99.664C35.3471 97.7079 34.8687 95.6885 34.5609 93.6535C34.5609 93.6378 34.5609 93.6063 34.5609 93.5746C34.3559 92.2179 34.2191 90.8297 34.1509 89.4415C33.2108 67.072 52.0454 47.905 76.2125 46.6429L76.0416 46.5011C81.8013 46.1696 90.1931 47.3371 97.2347 45.6334C104.533 43.7245 111.164 40.0173 116.429 34.906C116.685 34.6536 116.975 34.4327 117.282 34.2434L122.239 27.7598C101.49 14.477 74.1101 10.8329 48.986 20.3138C9.53928 35.1744 -9.36366 76.7581 6.75344 113.167C10.787 122.27 16.6151 130.189 23.7251 136.705C24.272 137.209 24.819 137.698 25.383 138.187H25.4Z" fill="url(#paint0_linear_4013_750)"/>
<path d="M35.0609 93.6158C35.3647 95.611 35.8348 97.59 36.4712 99.5064L36.4747 99.5168L36.4777 99.5274C37.4118 102.817 37.9313 106.204 38.0006 109.623L38.0007 109.631L38.0007 109.638C37.9488 116.039 36.1802 123.535 31.6661 131.724L31.6482 131.757L31.6258 131.786L26.225 138.869L25.8921 139.306L25.4885 138.934C25.4264 138.877 25.3592 138.818 25.2855 138.754L25.2822 138.751C25.2584 138.73 25.234 138.709 25.2091 138.687H25.1963L25.0552 138.565C24.4881 138.073 23.9375 137.581 23.3869 137.073C23.3866 137.073 23.3863 137.073 23.386 137.072L23.7251 136.705L35.0609 93.6158ZM35.0609 93.6158V93.6156V93.6154V93.6153V93.6151V93.6149V93.6148V93.6146V93.6144V93.6143V93.6141V93.6139V93.6138V93.6136V93.6134V93.6133V93.6131V93.6129V93.6128V93.6126V93.6124V93.6123V93.6121V93.6119V93.6117V93.6116V93.6114V93.6112V93.6111V93.6109V93.6107V93.6105V93.6104V93.6102V93.61V93.6099V93.6097V93.6095V93.6094V93.6092V93.609V93.6088V93.6087V93.6085V93.6083V93.6081V93.608V93.6078V93.6076V93.6075V93.6073V93.6071V93.6069V93.6068V93.6066V93.6064V93.6062V93.6061V93.6059V93.6057V93.6055V93.6054V93.6052V93.605V93.6048V93.6047V93.6045V93.6043V93.6041V93.604V93.6038V93.6036V93.6034V93.6033V93.6031V93.6029V93.6027V93.6025V93.6024V93.6022V93.602V93.6018V93.6017V93.6015V93.6013V93.6011V93.601V93.6008V93.6006V93.6004V93.6002V93.6001V93.5999V93.5997V93.5995V93.5993V93.5992V93.599V93.5988V93.5986V93.5984V93.5983V93.5981V93.5979V93.5977V93.5976V93.5974V93.5972V93.597V93.5968V93.5967V93.5965V93.5963V93.5961V93.5959V93.5958V93.5956V93.5954V93.5952V93.595V93.5948V93.5947V93.5945V93.5943V93.5941V93.5939V93.5938V93.5936V93.5934V93.5932V93.593V93.5929V93.5927V93.5925V93.5923V93.5921V93.5919V93.5918V93.5916V93.5914V93.5912V93.591V93.5909V93.5907V93.5905V93.5903V93.5901V93.5899V93.5898V93.5896V93.5894V93.5892V93.589V93.5888V93.5887V93.5885V93.5883V93.5881V93.5879V93.5877V93.5876V93.5874V93.5872V93.587V93.5868V93.5866V93.5864V93.5863V93.5861V93.5859V93.5857V93.5855V93.5854V93.5852V93.585V93.5848V93.5846V93.5844V93.5842V93.5841V93.5839V93.5837V93.5835V93.5833V93.5831V93.5829V93.5828V93.5826V93.5824V93.5822V93.582V93.5818V93.5817V93.5815V93.5813V93.5811V93.5809V93.5807V93.5805V93.5804V93.5802V93.58V93.5798V93.5796V93.5794V93.5792V93.5791V93.5789V93.5787V93.5785V93.5783V93.5781V93.5779V93.5778V93.5776V93.5774V93.5772V93.577V93.5768V93.5767V93.5765V93.5763V93.5761V93.5759V93.5757V93.5755V93.5754V93.5752V93.575V93.5748V93.5746V93.537L35.0553 93.4999C34.8529 92.1609 34.7178 90.79 34.6504 89.4186M35.0609 93.6158L34.6504 89.4186M34.6504 89.4186C33.7244 67.359 52.3093 48.3919 76.2385 47.1422L77.5162 47.0755L77.3653 46.9502C78.9495 46.9153 80.6898 46.9602 82.5325 47.0078C83.7025 47.038 84.9137 47.0692 86.1524 47.0818C89.8595 47.1194 93.7689 46.9864 97.3523 46.1194L97.3523 46.1195L97.3613 46.1171C104.741 44.187 111.449 40.4378 116.777 35.2647L116.779 35.2623C117.005 35.0397 117.265 34.8414 117.545 34.669L117.623 34.6205L117.68 34.5471L122.636 28.0634L122.966 27.6317L122.508 27.3387C101.631 13.9729 74.0851 10.3079 48.8095 19.846L34.6504 89.4186Z" stroke="white" stroke-opacity="0.1" stroke-miterlimit="10"/>
<path d="M125.857 40.0798C125.738 40.411 125.601 40.758 125.396 41.0735C120.73 49.1347 118.747 61.3134 119.174 66.1249C119.875 74.1229 122.524 79.3131 121.704 85.434C122.32 107.63 103.519 126.481 79.5398 127.697C79.5398 127.697 79.5057 127.697 79.4886 127.697C74.2073 128.011 73.592 127.538 68.7553 127.743C58.774 128.154 48.1261 132.002 40.7426 139.196L35.8032 145.68C37.2219 146.547 38.6575 147.368 40.1103 148.188C40.7767 148.536 41.4433 148.867 42.11 149.198C61.6112 158.695 85.3509 160.445 107.347 152.148C146.794 137.272 165.697 95.6878 149.58 59.2782C145.17 49.3242 138.59 40.7738 130.557 33.9272L125.857 40.0798Z" fill="url(#paint1_linear_4013_750)"/>
<path d="M125.413 39.8379L125.46 39.7762L130.16 33.6237L130.48 33.2045L130.881 33.5467C138.968 40.4392 145.595 49.0495 150.037 59.0757L150.037 59.0758C166.282 95.7743 147.211 137.649 107.524 152.616C85.3942 160.964 61.5116 159.202 41.891 149.647L41.8876 149.646L41.8835 149.644C41.2189 149.314 40.5493 148.981 39.8792 148.632L39.8718 148.628L39.8644 148.624C38.4107 147.803 36.9689 146.979 35.5424 146.107L35.0698 145.818L35.4055 145.377L40.3449 138.893L40.3673 138.864L40.3937 138.838C47.8802 131.544 58.6524 127.658 68.7348 127.244M125.413 39.8379L68.7553 127.743M125.413 39.8379L125.386 39.9109C125.27 40.2356 125.148 40.5369 124.977 40.8015L124.97 40.8121L124.963 40.8231C122.596 44.9136 120.919 50.0274 119.887 54.7102C118.857 59.386 118.456 63.6903 118.676 66.1691M125.413 39.8379L121.704 85.434C122.32 107.63 103.519 126.481 79.5398 127.697M68.7348 127.244L68.7553 127.743M68.7348 127.244C68.7345 127.244 68.7343 127.244 68.7341 127.244L68.7553 127.743M68.7348 127.244C71.0036 127.148 72.356 127.199 73.6761 127.25C73.7755 127.254 73.8747 127.258 73.974 127.261C75.3817 127.314 76.8389 127.354 79.4589 127.197L79.4737 127.197H79.4886H79.4887H79.4888H79.4889H79.489H79.4891H79.4892H79.4893H79.4894H79.4895H79.4896H79.4897H79.4898H79.49H79.4901H79.4902H79.4903H79.4904H79.4905H79.4906H79.4907H79.4908H79.4909H79.491H79.4911H79.4912H79.4913H79.4915H79.4916H79.4917H79.4918H79.4919H79.492H79.4921H79.4922H79.4923H79.4925H79.4926H79.4927H79.4928H79.4929H79.493H79.4931H79.4932H79.4934H79.4935H79.4936H79.4937H79.4938H79.4939H79.4941H79.4942H79.4943H79.4944H79.4945H79.4946H79.4948H79.4949H79.495H79.4951H79.4952H79.4954H79.4955H79.4956H79.4957H79.4958H79.496H79.4961H79.4962H79.4963H79.4964H79.4966H79.4967H79.4968H79.4969H79.4971H79.4972H79.4973H79.4974H79.4975H79.4977H79.4978H79.4979H79.498H79.4982H79.4983H79.4984H79.4985H79.4987H79.4988H79.4989H79.499H79.4992H79.4993H79.4994H79.4995H79.4997H79.4998H79.4999H79.5001H79.5002H79.5003H79.5004H79.5006H79.5007H79.5008H79.5009H79.5011H79.5012H79.5013H79.5015H79.5016H79.5017H79.5019H79.502H79.5021H79.5022H79.5024H79.5025H79.5026H79.5028H79.5029H79.503H79.5032H79.5033H79.5034H79.5035H79.5037H79.5038H79.5039H79.5041H79.5042H79.5043H79.5045H79.5046H79.5047H79.5049H79.505H79.5051H79.5053H79.5054H79.5055H79.5057H79.5058H79.5059H79.5061H79.5062H79.5063H79.5064H79.5066H79.5067H79.5068H79.507H79.5071H79.5072H79.5074H79.5075H79.5076H79.5078H79.5079H79.508H79.5082H79.5083H79.5084H79.5086H79.5087H79.5088H79.509H79.5091H79.5092H79.5094H79.5095H79.5096H79.5098H79.5099H79.51H79.5102H79.5103H79.5104H79.5106H79.5107H79.5108H79.511H79.5111H79.5112H79.5114H79.5115H79.5116H79.5118H79.5119H79.512H79.5122H79.5123H79.5124H79.5126H79.5127H79.5128H79.513H79.5131H79.5132H79.5134H79.5135H79.5136H79.5138H79.5139H79.514H79.5142H79.5143H79.5144H79.5145H79.5147H79.5148H79.5149H79.5151H79.5152H79.5153H79.5155H79.5156H79.5157H79.5159H79.516H79.5161H79.5163H79.5164H79.5165H79.5166H79.5168H79.5169H79.517H79.5172H79.5173H79.5174H79.5175H79.5177H79.5178H79.5179H79.5181H79.5182H79.5183H79.5184H79.5186H79.5187H79.5188H79.519H79.5191H79.5192H79.5193H79.5195H79.5196H79.5197H79.5198H79.52H79.5201H79.5202H79.5203H79.5205H79.5206H79.5207H79.5208H79.521H79.5211H79.5212H79.5213H79.5215H79.5216H79.5217H79.5218H79.522H79.5221H79.5222H79.5223H79.5224H79.5226H79.5227H79.5228H79.5229H79.5231H79.5232H79.5233H79.5234H79.5235H79.5237H79.5238H79.5239H79.524H79.5241H79.5242H79.5244H79.5245H79.5246H79.5247H79.5248H79.5249H79.5251H79.5252H79.5253H79.5254H79.5255H79.5256H79.5258H79.5259H79.526H79.5261H79.5262H79.5263H79.5264H79.5266H79.5267H79.5268H79.5269H79.527H79.5271M68.7553 127.743C71.0041 127.648 72.3403 127.699 73.6573 127.75C75.1728 127.808 76.6628 127.865 79.4886 127.697H79.5398M79.5271 127.197C79.5229 127.197 79.5187 127.197 79.5145 127.197L79.5398 127.697M79.5271 127.197H79.5272H79.5273H79.5274H79.5275H79.5277H79.5278H79.5279H79.528H79.5281H79.5282H79.5283H79.5284H79.5285H79.5286H79.5287H79.5288H79.5289H79.529H79.5291H79.5293H79.5294H79.5295H79.5296H79.5297H79.5298H79.5299H79.53H79.5301H79.5302H79.5303H79.5304H79.5305H79.5306H79.5307H79.5308H79.5309H79.531H79.5311H79.5312H79.5313H79.5313H79.5314H79.5315H79.5316H79.5317H79.5318H79.5319H79.532H79.5321H79.5322H79.5323H79.5324H79.5325H79.5326H79.5326H79.5327H79.5328H79.5329H79.533H79.5331H79.5332H79.5333H79.5333H79.5334H79.5335H79.5336H79.5337H79.5338H79.5339H79.5339H79.534H79.5341H79.5342H79.5343H79.5343H79.5344H79.5345H79.5346H79.5347H79.5347H79.5348H79.5349H79.535H79.535H79.5351H79.5352H79.5353H79.5353H79.5354H79.5355H79.5356H79.5356H79.5357H79.5358H79.5359H79.5359H79.536H79.5361H79.5361H79.5362H79.5363H79.5363H79.5364H79.5365H79.5365H79.5366H79.5366H79.5367H79.5368H79.5368H79.5369H79.537H79.537H79.5371H79.5372H79.5373H79.5374H79.5375H79.5376H79.5377H79.5378H79.5379H79.538H79.5381H79.5382H79.5383H79.5384H79.5385H79.5386H79.5387H79.5387H79.5388H79.5389H79.539H79.539H79.5391H79.5392H79.5392H79.5393H79.5394H79.5394H79.5395H79.5396H79.5396H79.5397H79.5398V127.697M79.5271 127.197C103.265 125.987 121.811 107.334 121.204 85.4478L121.203 85.4075L121.208 85.3675C121.606 82.3968 121.166 79.6399 120.52 76.5868C120.407 76.0481 120.286 75.5001 120.163 74.9405C119.593 72.3409 118.967 69.4916 118.676 66.1691M35.8032 145.68L36.1078 145.28C36.0932 145.271 36.0786 145.262 36.064 145.253L35.8032 145.68ZM35.8032 145.68L36.201 145.983L36.233 145.941C36.0895 145.855 35.9463 145.768 35.8032 145.68ZM130.557 33.9272L130.954 34.2308L130.937 34.2534C130.811 34.1442 130.684 34.0355 130.557 33.9272ZM130.557 33.9272L130.233 34.3078C130.24 34.3136 130.246 34.3194 130.253 34.3251L130.557 33.9272ZM118.676 66.1691L119.173 66.1251L118.676 66.1686C118.676 66.1688 118.676 66.1689 118.676 66.1691Z" stroke="white" stroke-opacity="0.1" stroke-miterlimit="10"/>
<mask id="mask0_4013_750" style="mask-type:luminance" maskUnits="userSpaceOnUse" x="209" y="15" width="678" height="142">
<path d="M886.205 15.8921H209.333V156.57H886.205V15.8921Z" fill="white"/>
</mask>
<g mask="url(#mask0_4013_750)">
<path d="M472.333 16.231L465 38.4323H376.145V74.1474H453.501V96.3486H376.145V133.03H465L472.333 155.231H352.344V38.4323H352.333V16.231H472.333Z" fill="white"/>
<path d="M524.266 16.0083H493.663L603.279 155.465H633.971L579.157 85.7848L633.883 16.1147L603.279 16.163L563.835 66.3068L524.266 16.0083Z" fill="white"/>
<path d="M555.667 115.623L540.341 96.1187L493.572 155.572H524.263L555.667 115.623Z" fill="white"/>
<path fill-rule="evenodd" clip-rule="evenodd" d="M352.327 155.779L242.565 16.2627H213.333V155.72H236.719V46.0716L322.95 155.779H352.327Z" fill="white"/>
<path d="M782.34 55.3375C781.667 49.5592 778.707 45.0483 773.555 41.8423C768.357 38.599 761.641 36.996 753.402 36.996C747.617 36.996 742.634 37.779 738.494 39.3073C734.353 40.8731 731.143 42.9605 728.944 45.6074C726.751 48.2544 725.651 51.2741 725.565 54.6669C725.565 57.5001 726.324 59.9604 727.804 62.0109C729.284 64.0984 731.266 65.8507 733.845 67.2675C736.378 68.7212 739.209 69.9141 742.295 70.8833C745.419 71.8526 748.547 72.6729 751.671 73.344L766.076 76.5127C771.865 77.7055 777.485 79.309 782.848 81.3592C788.212 83.3723 793.072 85.9446 797.336 89.0387C801.605 92.1331 804.985 95.861 807.476 100.223C809.968 104.584 811.236 109.692 811.236 115.582C811.236 123.523 808.955 130.494 804.347 136.533C799.744 142.535 793.112 147.232 784.41 150.625C775.749 153.981 765.274 155.696 752.939 155.696C741.027 155.696 730.634 154.055 721.89 150.775C713.106 147.532 706.258 142.76 701.317 136.496C696.375 130.233 693.714 122.59 693.333 113.606H720.709C721.09 118.303 722.779 122.218 725.651 125.387C728.564 128.518 732.365 130.83 737.014 132.395C741.705 133.923 746.939 134.707 752.729 134.707C758.771 134.707 764.093 133.886 768.696 132.283C773.257 130.681 776.848 128.444 779.426 125.536C782.047 122.666 783.356 119.272 783.398 115.395C783.356 111.854 782.17 108.909 779.89 106.597C777.567 104.286 774.357 102.348 770.257 100.782C766.121 99.2163 761.303 97.7995 755.811 96.5693L738.325 92.6176C725.693 89.7471 715.68 85.3856 708.37 79.5325C701.024 73.6795 697.387 65.9254 697.387 56.1952C697.387 48.2174 699.837 41.209 704.783 35.2067C709.68 29.2047 716.399 24.5446 724.89 21.2266C733.423 17.8717 743.056 16.231 753.783 16.231C764.683 16.231 774.229 17.8717 782.468 21.2266C790.703 24.5446 797.17 29.1675 801.856 35.0574C806.546 40.9477 808.996 47.6952 809.124 55.3375H782.34Z" fill="white"/>
</g>
<path d="M656.919 19.1621H676.529V153.299H656.919V19.1621Z" fill="white"/>
</g>
<defs>
<linearGradient id="paint0_linear_4013_750" x1="61.6196" y1="15" x2="61.6196" y2="138.566" gradientUnits="userSpaceOnUse">
<stop stop-color="white"/>
<stop offset="1" stop-color="white" stop-opacity="0.8"/>
</linearGradient>
<linearGradient id="paint1_linear_4013_750" x1="95.5683" y1="33.9272" x2="95.5683" y2="157.462" gradientUnits="userSpaceOnUse">
<stop stop-color="white" stop-opacity="0.8"/>
<stop offset="1" stop-color="white"/>
</linearGradient>
<clipPath id="clip0_4013_750">
<rect width="887.205" height="172.462" fill="white"/>
</clipPath>
</defs>
</svg>
